<mxfile host="app.diagrams.net" agent="Mozilla/5.0 (Macintosh; Intel Mac OS X 10_15_7) AppleWebKit/537.36 (KHTML, like Gecko) Chrome/134.0.0.0 Safari/537.36" version="26.1.2">
  <diagram name="第 1 页" id="9RM9W3Wnp94HtN_BM854">
    <mxGraphModel dx="1242" dy="785" grid="1" gridSize="10" guides="1" tooltips="1" connect="1" arrows="1" fold="1" page="1" pageScale="1" pageWidth="827" pageHeight="1169" math="0" shadow="0">
      <root>
        <mxCell id="0" />
        <mxCell id="1" parent="0" />
        <mxCell id="Pgkx_FiRMpHMb7DREHxj-1" value="" style="rounded=1;whiteSpace=wrap;html=1;dashed=1;strokeWidth=2;strokeColor=#E6E6E6;" vertex="1" parent="1">
          <mxGeometry x="220" y="170" width="530" height="120" as="geometry" />
        </mxCell>
        <mxCell id="Pgkx_FiRMpHMb7DREHxj-2" value="微服务组件" style="rounded=0;whiteSpace=wrap;html=1;fillColor=#f5f5f5;fontColor=#333333;strokeColor=#666666;" vertex="1" parent="1">
          <mxGeometry x="414" y="150" width="120" height="40" as="geometry" />
        </mxCell>
        <mxCell id="Pgkx_FiRMpHMb7DREHxj-3" value="&lt;font style=&quot;font-size: 16px;&quot;&gt;&lt;b style=&quot;&quot;&gt;个人能力全景图&lt;/b&gt;&lt;/font&gt;" style="text;html=1;align=center;verticalAlign=middle;resizable=0;points=[];autosize=1;strokeColor=none;fillColor=none;" vertex="1" parent="1">
          <mxGeometry x="210" y="100" width="140" height="30" as="geometry" />
        </mxCell>
        <mxCell id="Pgkx_FiRMpHMb7DREHxj-4" value="" style="rounded=1;whiteSpace=wrap;html=1;dashed=1;strokeWidth=2;strokeColor=#E1D5E7;" vertex="1" parent="1">
          <mxGeometry x="220" y="320" width="530" height="120" as="geometry" />
        </mxCell>
        <mxCell id="Pgkx_FiRMpHMb7DREHxj-5" value="中间件" style="rounded=0;whiteSpace=wrap;html=1;fillColor=#f5f5f5;fontColor=#333333;strokeColor=#666666;" vertex="1" parent="1">
          <mxGeometry x="414" y="300" width="120" height="40" as="geometry" />
        </mxCell>
        <mxCell id="Pgkx_FiRMpHMb7DREHxj-6" value="Spring IOC 容器" style="rounded=0;whiteSpace=wrap;html=1;align=left;" vertex="1" parent="1">
          <mxGeometry x="230" y="250" width="100" height="30" as="geometry" />
        </mxCell>
        <mxCell id="Pgkx_FiRMpHMb7DREHxj-7" value="" style="rounded=1;whiteSpace=wrap;html=1;dashed=1;strokeWidth=2;strokeColor=#E1D5E7;" vertex="1" parent="1">
          <mxGeometry x="770" y="170" width="280" height="240" as="geometry" />
        </mxCell>
        <mxCell id="Pgkx_FiRMpHMb7DREHxj-8" value="DevOps" style="rounded=0;whiteSpace=wrap;html=1;fillColor=#f5f5f5;fontColor=#333333;strokeColor=#666666;" vertex="1" parent="1">
          <mxGeometry x="860" y="150" width="120" height="40" as="geometry" />
        </mxCell>
        <mxCell id="Pgkx_FiRMpHMb7DREHxj-9" value="项目管理工具" style="rounded=0;whiteSpace=wrap;html=1;fillColor=#FFCCFF;" vertex="1" parent="1">
          <mxGeometry x="780" y="200" width="70" height="30" as="geometry" />
        </mxCell>
        <mxCell id="Pgkx_FiRMpHMb7DREHxj-10" value="jira&lt;div&gt;版本管理、风险管理、进度管理&lt;/div&gt;" style="rounded=0;whiteSpace=wrap;html=1;" vertex="1" parent="1">
          <mxGeometry x="850" y="200" width="190" height="30" as="geometry" />
        </mxCell>
        <mxCell id="Pgkx_FiRMpHMb7DREHxj-11" value="Spring B&lt;span style=&quot;background-color: transparent; color: light-dark(rgb(0, 0, 0), rgb(255, 255, 255));&quot;&gt;oot&lt;/span&gt;" style="rounded=0;whiteSpace=wrap;html=1;align=left;" vertex="1" parent="1">
          <mxGeometry x="230" y="180" width="100" height="30" as="geometry" />
        </mxCell>
        <mxCell id="Pgkx_FiRMpHMb7DREHxj-12" value="" style="rounded=1;whiteSpace=wrap;html=1;dashed=1;strokeWidth=2;strokeColor=#E1D5E7;" vertex="1" parent="1">
          <mxGeometry x="220" y="470" width="530" height="120" as="geometry" />
        </mxCell>
        <mxCell id="Pgkx_FiRMpHMb7DREHxj-13" value="语言基础" style="rounded=0;whiteSpace=wrap;html=1;fillColor=#f5f5f5;fontColor=#333333;strokeColor=#666666;" vertex="1" parent="1">
          <mxGeometry x="414" y="450" width="120" height="40" as="geometry" />
        </mxCell>
        <mxCell id="Pgkx_FiRMpHMb7DREHxj-14" value="JVM 原理" style="rounded=0;whiteSpace=wrap;html=1;align=left;" vertex="1" parent="1">
          <mxGeometry x="230" y="550" width="100" height="30" as="geometry" />
        </mxCell>
        <mxCell id="Pgkx_FiRMpHMb7DREHxj-15" value="Kafka" style="rounded=0;whiteSpace=wrap;html=1;align=left;" vertex="1" parent="1">
          <mxGeometry x="350" y="365" width="100" height="30" as="geometry" />
        </mxCell>
        <mxCell id="Pgkx_FiRMpHMb7DREHxj-16" value="Canal" style="rounded=0;whiteSpace=wrap;html=1;align=left;" vertex="1" parent="1">
          <mxGeometry x="490" y="400" width="100" height="30" as="geometry" />
        </mxCell>
        <mxCell id="Pgkx_FiRMpHMb7DREHxj-17" value="Spring Cloud 负载均衡、服务发现" style="rounded=0;whiteSpace=wrap;html=1;align=left;" vertex="1" parent="1">
          <mxGeometry x="230" y="215" width="210" height="30" as="geometry" />
        </mxCell>
        <mxCell id="Pgkx_FiRMpHMb7DREHxj-18" value="Sharding" style="rounded=0;whiteSpace=wrap;html=1;align=left;" vertex="1" parent="1">
          <mxGeometry x="490" y="365" width="100" height="30" as="geometry" />
        </mxCell>
        <mxCell id="Pgkx_FiRMpHMb7DREHxj-19" value="Tomcat servlet容器" style="rounded=0;whiteSpace=wrap;html=1;align=left;" vertex="1" parent="1">
          <mxGeometry x="340" y="250" width="100" height="30" as="geometry" />
        </mxCell>
        <mxCell id="Pgkx_FiRMpHMb7DREHxj-20" value="运营" style="rounded=0;whiteSpace=wrap;html=1;fillColor=#FFCCFF;" vertex="1" parent="1">
          <mxGeometry x="780" y="280" width="70" height="30" as="geometry" />
        </mxCell>
        <mxCell id="Pgkx_FiRMpHMb7DREHxj-21" value="Kubernetes" style="rounded=0;whiteSpace=wrap;html=1;" vertex="1" parent="1">
          <mxGeometry x="850" y="280" width="70" height="30" as="geometry" />
        </mxCell>
        <mxCell id="Pgkx_FiRMpHMb7DREHxj-22" value="Jenkins" style="rounded=0;whiteSpace=wrap;html=1;" vertex="1" parent="1">
          <mxGeometry x="920" y="280" width="70" height="30" as="geometry" />
        </mxCell>
        <mxCell id="Pgkx_FiRMpHMb7DREHxj-23" value="代码管理" style="rounded=0;whiteSpace=wrap;html=1;fillColor=#FFCCFF;" vertex="1" parent="1">
          <mxGeometry x="780" y="320" width="70" height="30" as="geometry" />
        </mxCell>
        <mxCell id="Pgkx_FiRMpHMb7DREHxj-24" value="Git" style="rounded=0;whiteSpace=wrap;html=1;" vertex="1" parent="1">
          <mxGeometry x="850" y="320" width="70" height="30" as="geometry" />
        </mxCell>
        <mxCell id="Pgkx_FiRMpHMb7DREHxj-25" value="Confluence&lt;div&gt;管理需求、设计文档，沉淀知识库&lt;/div&gt;" style="rounded=0;whiteSpace=wrap;html=1;" vertex="1" parent="1">
          <mxGeometry x="850" y="230" width="190" height="30" as="geometry" />
        </mxCell>
        <mxCell id="Pgkx_FiRMpHMb7DREHxj-26" value="MySQL 主从、读写分离" style="rounded=0;whiteSpace=wrap;html=1;align=left;" vertex="1" parent="1">
          <mxGeometry x="230" y="330" width="100" height="30" as="geometry" />
        </mxCell>
        <mxCell id="Pgkx_FiRMpHMb7DREHxj-27" value="Redis" style="rounded=0;whiteSpace=wrap;html=1;align=left;" vertex="1" parent="1">
          <mxGeometry x="230" y="365" width="100" height="30" as="geometry" />
        </mxCell>
        <mxCell id="Pgkx_FiRMpHMb7DREHxj-28" value="" style="rounded=1;whiteSpace=wrap;html=1;dashed=1;strokeWidth=2;strokeColor=#E1D5E7;" vertex="1" parent="1">
          <mxGeometry x="780" y="440" width="280" height="150" as="geometry" />
        </mxCell>
        <mxCell id="Pgkx_FiRMpHMb7DREHxj-29" value="架构设计" style="rounded=0;whiteSpace=wrap;html=1;fillColor=#f5f5f5;fontColor=#333333;strokeColor=#666666;" vertex="1" parent="1">
          <mxGeometry x="870" y="420" width="120" height="40" as="geometry" />
        </mxCell>
        <mxCell id="Pgkx_FiRMpHMb7DREHxj-30" value="微服务架构" style="rounded=0;whiteSpace=wrap;html=1;" vertex="1" parent="1">
          <mxGeometry x="790" y="480" width="70" height="30" as="geometry" />
        </mxCell>
        <mxCell id="Pgkx_FiRMpHMb7DREHxj-31" value="分布式架构" style="rounded=0;whiteSpace=wrap;html=1;" vertex="1" parent="1">
          <mxGeometry x="790" y="520" width="70" height="30" as="geometry" />
        </mxCell>
        <mxCell id="Pgkx_FiRMpHMb7DREHxj-32" value="DDD设计" style="rounded=0;whiteSpace=wrap;html=1;" vertex="1" parent="1">
          <mxGeometry x="870" y="480" width="70" height="30" as="geometry" />
        </mxCell>
        <mxCell id="Pgkx_FiRMpHMb7DREHxj-33" value="三高设计" style="rounded=0;whiteSpace=wrap;html=1;" vertex="1" parent="1">
          <mxGeometry x="870" y="520" width="70" height="30" as="geometry" />
        </mxCell>
        <mxCell id="Pgkx_FiRMpHMb7DREHxj-34" value="集合框架" style="rounded=0;whiteSpace=wrap;html=1;align=left;" vertex="1" parent="1">
          <mxGeometry x="230" y="510" width="100" height="30" as="geometry" />
        </mxCell>
        <mxCell id="Pgkx_FiRMpHMb7DREHxj-35" value="6大设计原则" style="rounded=0;whiteSpace=wrap;html=1;align=left;" vertex="1" parent="1">
          <mxGeometry x="340" y="510" width="100" height="30" as="geometry" />
        </mxCell>
        <mxCell id="Pgkx_FiRMpHMb7DREHxj-36" value="设计模式" style="rounded=0;whiteSpace=wrap;html=1;align=left;" vertex="1" parent="1">
          <mxGeometry x="340" y="550" width="100" height="30" as="geometry" />
        </mxCell>
        <mxCell id="Pgkx_FiRMpHMb7DREHxj-37" value="多线程" style="rounded=0;whiteSpace=wrap;html=1;align=left;" vertex="1" parent="1">
          <mxGeometry x="450" y="510" width="100" height="30" as="geometry" />
        </mxCell>
        <mxCell id="Pgkx_FiRMpHMb7DREHxj-38" value="锁" style="rounded=0;whiteSpace=wrap;html=1;align=left;" vertex="1" parent="1">
          <mxGeometry x="450" y="550" width="100" height="30" as="geometry" />
        </mxCell>
        <mxCell id="Pgkx_FiRMpHMb7DREHxj-39" value="Nginx 负载均衡" style="rounded=0;whiteSpace=wrap;html=1;align=left;" vertex="1" parent="1">
          <mxGeometry x="560" y="250" width="100" height="30" as="geometry" />
        </mxCell>
        <mxCell id="Pgkx_FiRMpHMb7DREHxj-40" value="MongoDB" style="rounded=0;whiteSpace=wrap;html=1;align=left;" vertex="1" parent="1">
          <mxGeometry x="230" y="400" width="100" height="30" as="geometry" />
        </mxCell>
        <mxCell id="Pgkx_FiRMpHMb7DREHxj-41" value="ActiveMQ" style="rounded=0;whiteSpace=wrap;html=1;align=left;" vertex="1" parent="1">
          <mxGeometry x="350" y="400" width="100" height="30" as="geometry" />
        </mxCell>
        <mxCell id="Pgkx_FiRMpHMb7DREHxj-42" value="Nacos 配置管理、服务注册" style="rounded=0;whiteSpace=wrap;html=1;align=left;" vertex="1" parent="1">
          <mxGeometry x="560" y="200" width="100" height="30" as="geometry" />
        </mxCell>
        <mxCell id="Pgkx_FiRMpHMb7DREHxj-43" value="Dubbo" style="rounded=0;whiteSpace=wrap;html=1;align=left;" vertex="1" parent="1">
          <mxGeometry x="670" y="200" width="60" height="30" as="geometry" />
        </mxCell>
        <mxCell id="Pgkx_FiRMpHMb7DREHxj-44" value="Sentinel 熔断、降级" style="rounded=0;whiteSpace=wrap;html=1;align=left;" vertex="1" parent="1">
          <mxGeometry x="450" y="200" width="100" height="30" as="geometry" />
        </mxCell>
        <mxCell id="Pgkx_FiRMpHMb7DREHxj-45" value="Ribbon + Openfeign 负载均衡" style="rounded=0;whiteSpace=wrap;html=1;align=left;" vertex="1" parent="1">
          <mxGeometry x="450" y="240" width="100" height="40" as="geometry" />
        </mxCell>
        <mxCell id="Pgkx_FiRMpHMb7DREHxj-46" value="Stream 框架" style="rounded=0;whiteSpace=wrap;html=1;align=left;" vertex="1" parent="1">
          <mxGeometry x="560" y="510" width="100" height="30" as="geometry" />
        </mxCell>
      </root>
    </mxGraphModel>
  </diagram>
</mxfile>
